{
  "asset": {
    "generator": "Khronos glTF Blender I/O v1.5.17",
    "version": "2.0"
  },
  "scene": 0,
  "scenes": [
    {
      "name": "Scene",
      "nodes": [
        0
      ]
    }
  ],
  "nodes": [
    {
      "mesh": 0,
      "name": "sphere_gltf"
    }
  ],
  "materials": [
    {
      "doubleSided": true,
      "name": "aerial_asphalt_01",
      "normalTexture": {
        "index": 0
      },
      "pbrMetallicRoughness": {
        "baseColorTexture": {
          "index": 1
        },
        "metallicFactor": 0,
        "metallicRoughnessTexture": {
          "index": 2
        }
      }
    }
  ],
  "meshes": [
    {
      "name": "Sphere.001",
      "primitives": [
        {
          "attributes": {
            "POSITION": 0,
            "NORMAL": 1,
            "TEXCOORD_0": 2
          },
          "indices": 3,
          "material": 0
        }
      ]
    }
  ],
  "textures": [
    {
      "sampler": 0,
      "source": 0
    },
    {
      "sampler": 0,
      "source": 1
    },
    {
      "sampler": 0,
      "source": 2
    }
  ],
  "images": [
    {
      "mimeType": "image/jpeg",
      "name": "aerial_asphalt_01_nor_gl_4k",
      "uri": "textures/aerial_asphalt_01_nor_gl_1k.jpg"
    },
    {
      "mimeType": "image/jpeg",
      "name": "aerial_asphalt_01_diff_4k",
      "uri": "textures/aerial_asphalt_01_diff_1k.jpg"
    },
    {
      "mimeType": "image/jpeg",
      "name": "aerial_asphalt_01_rough_4k",
      "uri": "textures/aerial_asphalt_01_rough_1k.jpg"
    }
  ],
  "accessors": [
    {
      "bufferView": 0,
      "componentType": 5126,
      "count": 53931,
      "max": [
        14.982033729553223,
        15.020942687988281,
        14.982041358947754
      ],
      "min": [
        -14.982034683227539,
        -15.021285057067871,
        -14.982017517089844
      ],
      "type": "VEC3"
    },
    {
      "bufferView": 1,
      "componentType": 5126,
      "count": 53931,
      "type": "VEC3"
    },
    {
      "bufferView": 2,
      "componentType": 5126,
      "count": 53931,
      "type": "VEC2"
    },
    {
      "bufferView": 3,
      "componentType": 5123,
      "count": 322170,
      "type": "SCALAR"
    }
  ],
  "bufferViews": [
    {
      "buffer": 0,
      "byteLength": 647172,
      "byteOffset": 0
    },
    {
      "buffer": 0,
      "byteLength": 647172,
      "byteOffset": 647172
    },
    {
      "buffer": 0,
      "byteLength": 431448,
      "byteOffset": 1294344
    },
    {
      "buffer": 0,
      "byteLength": 644340,
      "byteOffset": 1725792
    }
  ],
  "samplers": [
    {
      "magFilter": 9729,
      "minFilter": 9987
    }
  ],
  "buffers": [
    {
      "byteLength": 2370132,
      "uri": "aerial_asphalt_01.bin"
    }
  ]
}