{
  "asset": {
    "generator": "Khronos glTF Blender I/O v3.6.27",
    "version": "2.0"
  },
  "scene": 0,
  "scenes": [
    {
      "name": "Scene",
      "nodes": [
        0
      ]
    }
  ],
  "nodes": [
    {
      "mesh": 0,
      "name": "concrete_road_barrier_02"
    }
  ],
  "materials": [
    {
      "doubleSided": true,
      "name": "concrete_road_barrier_02",
      "normalTexture": {
        "index": 0
      },
      "pbrMetallicRoughness": {
        "baseColorTexture": {
          "index": 1
        },
        "metallicFactor": 0,
        "metallicRoughnessTexture": {
          "index": 2
        }
      }
    }
  ],
  "meshes": [
    {
      "name": "Concrete_Road_Barrier_02_LOD00",
      "primitives": [
        {
          "attributes": {
            "POSITION": 0,
            "NORMAL": 1,
            "TEXCOORD_0": 2
          },
          "indices": 3,
          "material": 0
        }
      ]
    }
  ],
  "textures": [
    {
      "sampler": 0,
      "source": 0
    },
    {
      "sampler": 0,
      "source": 1
    },
    {
      "sampler": 0,
      "source": 2
    }
  ],
  "images": [
    {
      "mimeType": "image/jpeg",
      "name": "concrete_road_barrier_02_nor_gl",
      "uri": "textures/concrete_road_barrier_02_nor_gl_1k.jpg"
    },
    {
      "mimeType": "image/jpeg",
      "name": "concrete_road_barrier_02_diff",
      "uri": "textures/concrete_road_barrier_02_diff_1k.jpg"
    },
    {
      "mimeType": "image/jpeg",
      "name": "concrete_road_barrier_02_rough",
      "uri": "textures/concrete_road_barrier_02_arm_1k.jpg"
    }
  ],
  "accessors": [
    {
      "bufferView": 0,
      "componentType": 5126,
      "count": 12499,
      "max": [
        0.7892323732376099,
        1.1091585159301758,
        0.18809300661087036
      ],
      "min": [
        -0.7761769890785217,
        -0.0027944163884967566,
        -0.2540489733219147
      ],
      "type": "VEC3"
    },
    {
      "bufferView": 1,
      "componentType": 5126,
      "count": 12499,
      "type": "VEC3"
    },
    {
      "bufferView": 2,
      "componentType": 5126,
      "count": 12499,
      "type": "VEC2"
    },
    {
      "bufferView": 3,
      "componentType": 5123,
      "count": 71466,
      "type": "SCALAR"
    }
  ],
  "bufferViews": [
    {
      "buffer": 0,
      "byteLength": 149988,
      "byteOffset": 0,
      "target": 34962
    },
    {
      "buffer": 0,
      "byteLength": 149988,
      "byteOffset": 149988,
      "target": 34962
    },
    {
      "buffer": 0,
      "byteLength": 99992,
      "byteOffset": 299976,
      "target": 34962
    },
    {
      "buffer": 0,
      "byteLength": 142932,
      "byteOffset": 399968,
      "target": 34963
    }
  ],
  "samplers": [
    {
      "magFilter": 9729,
      "minFilter": 9987
    }
  ],
  "buffers": [
    {
      "byteLength": 542900,
      "uri": "concrete_road_barrier_02.bin"
    }
  ]
}